<svg xmlns="http://www.w3.org/2000/svg" width="35px" height="24px" viewBox="0 0 88 88">
    <title>Artboard-2</title>
    <g id="Layer">
        <path
            d="M1.5361,32.8857l42,22a.9985.9985,0,0,0,.9278,0l42-22a1,1,0,0,0,0-1.7714l-42-22a.9985.9985,0,0,0-.9278,0l-42,22a1,1,0,0,0,0,1.7714Z"
            style="fill:#c1ff72" />
        <path
            d="M86.4644,43.1143l-7.6072-3.9862L45.3921,56.6572a2.9984,2.9984,0,0,1-2.7861-.0009L9.1429,39.128,1.5356,43.1143a1,1,0,0,0,0,1.7714l42,22a.9985.9985,0,0,0,.9278,0l42-22a1,1,0,0,0,.0005-1.7714Z"
            style="fill:#c1ff72" />
        <path
            d="M86.4644,55.1143l-7.6072-3.9862L45.3921,68.6572a2.9984,2.9984,0,0,1-2.7861-.0009L9.1429,51.128,1.5356,55.1143a1,1,0,0,0,0,1.7714l42,22a.9985.9985,0,0,0,.9278,0l42-22a1,1,0,0,0,.0005-1.7714Z"
            style="fill:#c1ff72" />
    </g>
</svg>