<svg width="38px" height="28px" viewBox="0 0 512 512" fill="none" xmlns="http://www.w3.org/2000/svg">
    <path fill-rule="evenodd" clip-rule="evenodd"
        d="M132.188 323.567C132.188 286.249 217.09 255.971 321.858 255.971C426.597 255.971 511.499 286.25 511.499 323.567V385.695C511.499 423.013 426.597 453.291 321.858 453.291C217.09 453.291 132.188 423.012 132.188 385.695V323.567Z"
        fill="#FE9923" />
    <path fill-rule="evenodd" clip-rule="evenodd"
        d="M321.859 255.971C426.598 255.971 511.5 286.25 511.5 323.567C511.5 360.913 426.598 391.163 321.859 391.163C217.091 391.163 132.189 360.914 132.189 323.567C132.188 286.249 217.091 255.971 321.859 255.971Z"
        fill="#FECD3D" />
    <path fill-rule="evenodd" clip-rule="evenodd"
        d="M321.859 287.558C405.191 287.558 472.729 303.701 472.729 323.567C472.729 343.462 405.191 359.575 321.859 359.575C238.527 359.575 170.96 343.461 170.96 323.567C170.96 303.701 238.527 287.558 321.859 287.558Z"
        fill="#FEA832" />
    <path
        d="M225.846 415.508L242.047 415.537V447.008C236.624 446.124 231.222 445.115 225.846 443.983V415.508ZM460.221 398.842V431.913C466.067 429.673 471.477 427.318 476.451 424.845V398.813L460.221 398.842ZM284.425 451.953C289.777 452.36 295.187 452.651 300.655 452.855V422.78L284.425 422.809V451.953ZM167.237 424.845C172.211 427.318 177.621 429.673 183.467 431.913V398.813L167.237 398.842V424.845ZM343.033 452.855C348.438 452.646 353.839 452.345 359.234 451.953V422.809L343.033 422.78V452.855ZM401.642 447.008C407.065 446.127 412.467 445.118 417.843 443.983V415.537L401.642 415.508V447.008Z"
        fill="#C85929" />
    <path
        d="M56.186 398.667V418.795H76.285V433.163H56.186V453.291H41.818V433.163H21.69V418.795H41.818V398.667H56.186ZM423.893 178.224V198.351H444.02V212.691H423.893V232.818H409.524V212.691H389.426V198.351H409.524V178.224H423.893ZM65.843 58.709V78.837H85.942V93.176H65.843V113.304H51.474V93.176H31.347V78.837H51.474V58.709H65.843Z"
        fill="#FEA832" />
    <path fill-rule="evenodd" clip-rule="evenodd"
        d="M3.97701 288.431C-14.696 256.087 43.709 187.415 134.428 135.06C225.148 82.676 313.802 66.4461 332.475 98.76C342.823 116.69 353.178 134.617 363.539 152.54C382.212 184.884 323.807 253.556 233.088 305.911C142.369 358.295 53.714 374.554 35.041 342.21C24.686 324.294 14.332 306.348 3.97701 288.431Z"
        fill="#FE9923" />
    <path fill-rule="evenodd" clip-rule="evenodd"
        d="M134.428 135.06C225.148 82.676 313.802 66.4461 332.475 98.76C351.148 131.104 292.743 199.776 202.024 252.131C111.334 304.515 22.65 320.745 3.97701 288.43C-14.696 256.087 43.709 187.415 134.428 135.06Z"
        fill="#FECD3D" />
    <path fill-rule="evenodd" clip-rule="evenodd"
        d="M150.222 162.401C222.385 120.75 288.963 100.942 298.91 118.161C308.857 135.38 258.393 183.11 186.231 224.791C114.068 266.442 47.519 286.25 37.572 269.031C27.625 251.812 78.059 204.081 150.222 162.401Z"
        fill="#FEA832" />
    <path
        d="M199.494 290.118L214.532 316.15C209.739 318.68 204.9 321.124 200.018 323.479L185.446 298.233L199.494 290.118ZM71.98 336.074L84.982 358.586C90.508 358.266 96.384 357.597 102.55 356.608L86.029 327.959L71.98 336.074ZM131.054 321.211L145.306 345.876C150.523 344.168 155.702 342.345 160.838 340.408L145.102 313.125L131.054 321.211ZM236.2 268.914L251.238 294.946C255.816 292.067 260.344 289.109 264.821 286.075L250.249 260.857L236.2 268.914ZM339.747 181.452L325.698 189.596L342.248 218.217C346.175 213.389 349.694 208.618 352.748 203.993L339.747 181.452ZM283.32 233.313L299.056 260.596C303.311 257.13 307.482 253.561 311.563 249.892L297.34 225.256L283.32 233.313Z"
        fill="#C85929" />
</svg>